<?xml version="1.0" encoding="iso-8859-1"?>
<!-- Generator: Adobe Illustrator 19.0.0, SVG Export Plug-In . SVG Version: 6.00 Build 0)  -->
<svg version="1.1" id="Capa_1" xmlns="http://www.w3.org/2000/svg" xmlns:xlink="http://www.w3.org/1999/xlink" x="0px" y="0px"
	 viewBox="0 0 496 496" style="enable-background:new 0 0 496 496;" xml:space="preserve">
<g>
	<g>
		<g>
			<path d="M424,144h-2.848C437.504,130.792,448,110.608,448,88V72c0-39.696-32.296-72-72-72c-24.912,0-46.896,12.72-59.824,32H0
				v432h304v32h144V331.552c4.728,2.752,10.144,4.448,16,4.448c17.648,0,32-14.352,32-32v-88C496,176.304,463.704,144,424,144z
				 M424,160c15.216,0,29.016,6.12,39.112,16h-55.32c3.536-4.672,6.184-10.056,7.392-16H424z M376,144
				c-28.152,0-51.456-20.904-55.36-48h7.856c10.408,10.256,28.608,10.256,39.016,0h16.984c5.2,5.128,12.12,8,19.504,8
				c7.384,0,14.304-2.872,19.504-8h7.856C427.456,123.096,404.152,144,376,144z M398.528,160c-3.312,9.288-12.112,16-22.528,16
				s-19.216-6.712-22.528-16H398.528z M344.2,176h-55.32c10.104-9.88,23.904-16,39.112-16h8.816
				C338.024,165.944,340.664,171.328,344.2,176z M376,16c25.312,0,46.736,16.896,53.64,40h-6.136
				c-10.408-10.256-28.608-10.256-39.016,0h-16.984c-10.408-10.256-28.608-10.256-39.016,0h-6.136C329.264,32.896,350.688,16,376,16
				z M320,72h16.08l2.4-3.176c4.624-6.128,14.424-6.128,19.048,0L359.92,72h32.16l2.4-3.176c4.624-6.128,14.424-6.128,19.048,0
				L415.92,72H432v8h-16.08l-2.4,3.176c-4.624,6.128-14.424,6.128-19.048,0L392.08,80h-32.16l-2.4,3.176
				c-4.624,6.128-14.424,6.128-19.048,0L336.08,80H320V72z M16,48h292.2c-2.672,7.52-4.2,15.576-4.2,24v16
				c0,2.704,0.176,5.368,0.472,8H16V48z M304,448H16V112h292.2c4.496,12.664,12.384,23.712,22.648,32H328c-39.704,0-72,32.304-72,72
				v88c0,17.648,14.352,32,32,32c5.856,0,11.272-1.696,16-4.448V448z M304,304c0,8.824-7.176,16-16,16c-8.824,0-16-7.176-16-16v-16
				h32V304z M304,272h-32v-16h32V272z M304,240h-32v-16h32V240z M432,480h-48V352h-16v128h-48V320h112V480z M432,272h-96v16h96v16
				H320v-48h112V272z M432,240H320v-16h112V240z M432,200v8H320v-8h-16v8h-31.36c0.816-5.648,2.464-11.024,4.84-16h197.04
				c2.376,4.976,4.032,10.352,4.84,16H448v-8H432z M480,304c0,8.824-7.176,16-16,16c-8.824,0-16-7.176-16-16v-16h32V304z M480,272
				h-32v-16h32V272z M480,240h-32v-16h32V240z"/>
			<rect x="32" y="64" width="16" height="16"/>
			<rect x="64" y="64" width="16" height="16"/>
			<rect x="96" y="64" width="16" height="16"/>
			<path d="M208,216c0-39.696-32.296-72-72-72s-72,32.304-72,72v48H48v144h176V264h-16V216z M80,216c0-30.88,25.128-56,56-56
				s56,25.12,56,56v48h-16v-48c0-22.056-17.944-40-40-40c-22.056,0-40,17.944-40,40v48H80V216z M160,216v48h-48v-48
				c0-13.232,10.768-24,24-24S160,202.768,160,216z M208,392H64V280h144V392z"/>
			<path d="M128,342.528V376h16v-33.472c9.288-3.312,16-12.112,16-22.528c0-13.232-10.768-24-24-24s-24,10.768-24,24
				C112,330.416,118.712,339.216,128,342.528z M136,312c4.416,0,8,3.592,8,8c0,4.408-3.584,8-8,8s-8-3.592-8-8
				C128,315.592,131.584,312,136,312z"/>
		</g>
	</g>
</g>
<g>
</g>
<g>
</g>
<g>
</g>
<g>
</g>
<g>
</g>
<g>
</g>
<g>
</g>
<g>
</g>
<g>
</g>
<g>
</g>
<g>
</g>
<g>
</g>
<g>
</g>
<g>
</g>
<g>
</g>
</svg>
